<svg version="1.2" xmlns="http://www.w3.org/2000/svg" viewBox="0 0 512 512" width="512" height="512">
	<style>
		.s0 { fill: #009dc5 } 
		.s1 { fill: #ffffff } 
	</style>
	<path id="Background" class="s0" d="m64 66h384c35.35 0 64 28.65 64 64v260c0 35.35-28.65 64-64 64h-384c-35.35 0-64-28.65-64-64v-260c0-35.35 28.65-64 64-64zm0 0h384c35.35 0 64 28.65 64 64v260c0 35.35-28.65 64-64 64h-384c-35.35 0-64-28.65-64-64v-260c0-35.35 28.65-64 64-64z"/>
	<path id="ay" class="s1" aria-label="ay"  d="m115.9 366.7q-31.3 0-57.2-15.8-25.5-16.3-40.9-43.1-15-27.3-15-60.3 0-24.7 8.8-46.2 8.8-22 24.2-38.3 15.4-16.7 35.6-26 20.7-9.6 44.5-9.6 29.9 0 46.6 11.4 16.7 11 26 29.5v-36.1h58.9v228.8h-57.6v-37.4q-9.2 19.4-26.4 31.2-16.7 11.9-47.5 11.9zm9.7-53.7q19.8 0 33.8-8.8 14.6-9.2 22.5-24.2 7.9-14.9 7.9-32.5 0-18.1-7.9-33-7.9-15-22.5-24.2-14-9.3-33.8-9.3-19 0-33.5 9.3-14.1 8.8-22 23.7-7.9 15-7.9 33 0 17.2 7.9 32.6 7.9 15 22 24.2 14.5 9.2 33.5 9.2zm180.3 140q-8.8 0-19.8-0.9-11-0.9-19.8-3.5l8.8-56.8q12.3 3.1 26.9 3.1 17.1 0 28.1-9.7 11-10.1 15.9-25.1l3-9.7-90.6-218.2h71.7l44.5 130.7q6.1 17.6 9.6 36.5 3.6-18.9 9.7-36.5l44.5-130.7h70.4l-101.2 243.3q-14.6 34.8-37.9 56.3-23.3 21.2-63.8 21.2z"/>
</svg>